<?xml version="1.0" encoding="UTF-8" standalone="no"?>
<!-- Created with Inkscape (http://www.inkscape.org/) -->

<svg
   width="30mm"
   height="30mm"
   viewBox="0 0 30 30"
   version="1.1"
   id="svg5"
   inkscape:version="1.1.1 (3bf5ae0d25, 2021-09-20)"
   sodipodi:docname="favicon.svg"
   xmlns:inkscape="http://www.inkscape.org/namespaces/inkscape"
   xmlns:sodipodi="http://sodipodi.sourceforge.net/DTD/sodipodi-0.dtd"
   xmlns="http://www.w3.org/2000/svg"
   xmlns:svg="http://www.w3.org/2000/svg">
  <sodipodi:namedview
     id="namedview7"
     pagecolor="#ffffff"
     bordercolor="#666666"
     borderopacity="1.0"
     inkscape:pageshadow="2"
     inkscape:pageopacity="0.0"
     inkscape:pagecheckerboard="0"
     inkscape:document-units="mm"
     showgrid="false"
     width="30mm"
     inkscape:zoom="2.0460067"
     inkscape:cx="-52.78575"
     inkscape:cy="49.60883"
     inkscape:window-width="1920"
     inkscape:window-height="1001"
     inkscape:window-x="-9"
     inkscape:window-y="-9"
     inkscape:window-maximized="1"
     inkscape:current-layer="layer1" />
  <defs
     id="defs2" />
  <g
     inkscape:label="Vrstva 1"
     inkscape:groupmode="layer"
     id="layer1">
    <g
       id="g5965"
       transform="matrix(0.6455076,0,0,0.6455076,-0.95048443,0.34351871)"
       style="fill:#3a3e64;fill-opacity:1">
      <path
         d="M 32,8.828 29.172,6 23.586,11.586 20.414,8.414 26,2.828 23.172,0 17.586,5.586 14,2 l -2.707,2.707 16,16 L 30,18 26.414,14.414 Z"
         id="path5953"
         style="fill:#3a3e64;fill-opacity:1" />
      <path
         d="M 24.814,21.056 10.944,7.186 C 7.95,10.777 4.553,16.325 6.9,21.099 l -4.133,4.133 c -0.972,0.972 -0.972,2.563 0,3.535 l 0.464,0.464 c 0.972,0.972 2.563,0.972 3.536,0 L 10.9,25.098 c 4.774,2.348 10.322,-1.049 13.913,-4.043 z"
         id="path5955"
         style="fill:#3a3e64;fill-opacity:1" />
    </g>
    <path
       fill="#e84545"
       d="m 8.7665908,28.948145 0.609002,-2.200272 q 0.255389,0.176807 0.9036822,0.421281 0.648295,0.246659 1.532331,0.246659 v 0 q 0.768351,0 1.259482,-0.2663 0.491132,-0.264124 0.755251,-0.794545 0.266304,-0.530422 0.353613,-1.375167 0.08733,-0.844746 0.08733,-2.023464 v 0 -7.308043 h 2.711046 v 7.091945 q 0,1.571622 -0.176806,2.86821 -0.176807,1.296585 -0.687584,2.239558 -0.510777,0.942975 -1.541063,1.453752 -1.030285,0.510776 -2.741607,0.510776 v 0 q -0.942972,0 -1.68731,-0.2161 Q 9.3952488,29.380337 8.7665996,28.948144 Z M 29.236958,17.102043 28.038596,19.302315 Q 27.901082,19.164802 27.538736,18.929056 27.174204,18.693313 26.654698,18.477214 26.133007,18.261115 25.524001,18.09304 24.915,17.927134 24.286351,17.927134 v 0 q -1.100137,0 -1.658934,0.412552 -0.560981,0.412547 -0.560981,1.159069 v 0 q 0,0.569713 0.353615,0.903685 0.355796,0.333966 1.060844,0.56971 0.707229,0.235742 1.768071,0.510776 v 0 q 1.375172,0.333968 2.387998,0.814188 1.010637,0.482402 1.551971,1.257297 0.539153,0.77708 0.539153,2.054023 v 0 q 0,1.119779 -0.410364,1.914324 -0.414735,0.796722 -1.139426,1.287855 -0.729061,0.491133 -1.652388,0.715959 -0.923325,0.227013 -1.964526,0.227013 v 0 q -1.041196,0 -2.082398,-0.216101 -1.041201,-0.216097 -2.003819,-0.619915 -0.962616,-0.401637 -1.768073,-0.971347 v 0 l 1.198362,-2.337792 q 0.176808,0.176808 0.628648,0.460577 0.451842,0.285944 1.100135,0.569712 0.648295,0.285946 1.414461,0.4824 0.766165,0.196465 1.551976,0.196465 v 0 q 1.100137,0 1.669846,-0.373263 0.569712,-0.373261 0.569712,-1.060844 v 0 q 0,-0.628652 -0.449657,-0.982266 -0.454021,-0.353617 -1.259481,-0.619916 -0.805456,-0.264116 -1.90559,-0.578443 v 0 Q 21.909274,23.329593 21.025236,22.866839 20.1412,22.406264 19.709002,21.699036 19.276806,20.991803 19.276806,19.930962 v 0 q 0,-1.434109 0.678856,-2.407636 0.676668,-0.971352 1.835741,-1.473398 1.15907,-0.499864 2.573527,-0.499864 v 0 q 0.982264,0 1.857569,0.2161 0.873127,0.216098 1.641473,0.569711 0.763984,0.353617 1.372986,0.766163 z"
       id="path6003"
       style="fill:#e84545;fill-opacity:1;stroke:none;stroke-width:0.561991;stroke-linejoin:round;stroke-miterlimit:4;stroke-dasharray:none;stroke-opacity:1" />
  </g>
</svg>
